<svg xmlns="http://www.w3.org/2000/svg" xmlns:xlink="http://www.w3.org/1999/xlink" width="6912" zoomAndPan="magnify" viewBox="0 0 5184 1151.999944" height="1536" preserveAspectRatio="xMidYMid meet" version="1.0"><defs><g/><clipPath id="2da03461ff"><path d="M 170.921875 0 L 5012.914062 0 L 5012.914062 1151.929688 L 170.921875 1151.929688 Z M 170.921875 0 " clip-rule="nonzero"/></clipPath><clipPath id="40ff3a6fca"><path d="M 575 476.175781 L 858.980469 476.175781 L 858.980469 706 L 575 706 Z M 575 476.175781 " clip-rule="nonzero"/></clipPath><clipPath id="0c60a70735"><path d="M 732.515625 487.320312 L 742.261719 512.863281 C 751.601562 537.335938 775.074219 553.503906 801.269531 553.503906 L 846.171875 553.503906 C 851.699219 553.503906 856.558594 557.171875 858.070312 562.488281 C 859.582031 567.808594 857.382812 573.480469 852.679688 576.390625 L 819.953125 596.640625 C 798.484375 609.921875 789.46875 636.578125 798.46875 660.167969 L 808.214844 685.710938 C 810.460938 691.605469 808.703125 698.277344 803.839844 702.296875 C 798.976562 706.3125 792.09375 706.785156 786.726562 703.464844 L 754 683.21875 C 731.332031 669.191406 702.683594 669.191406 680.015625 683.21875 L 647.289062 703.464844 C 641.925781 706.785156 635.042969 706.3125 630.179688 702.296875 C 625.316406 698.277344 623.554688 691.605469 625.804688 685.710938 L 635.550781 660.167969 C 644.550781 636.578125 635.535156 609.921875 614.066406 596.640625 L 581.339844 576.390625 C 576.636719 573.480469 574.4375 567.808594 575.949219 562.488281 C 577.460938 557.171875 582.316406 553.503906 587.847656 553.503906 L 632.75 553.503906 C 658.941406 553.503906 682.417969 537.335938 691.757812 512.863281 L 701.503906 487.320312 C 703.957031 480.886719 710.125 476.636719 717.007812 476.636719 C 723.894531 476.636719 730.0625 480.886719 732.515625 487.320312 Z M 732.515625 487.320312 " clip-rule="nonzero"/></clipPath></defs><g clip-path="url(#2da03461ff)"><path fill="#800000" d="M -426.082031 -4.085938 L 5013.066406 -4.085938 L 4531.035156 574.089844 L 5013.066406 1152.261719 L -426.082031 1152.261719 L 55.949219 574.089844 L -426.082031 -4.085938 " fill-opacity="1" fill-rule="nonzero"/></g><g fill="#f5f5dc" fill-opacity="1"><g transform="translate(955.904632, 713.6422)"><g><path d="M 29.6875 -223.859375 C 30.09375 -228.597656 31.328125 -232.253906 33.390625 -234.828125 C 35.453125 -237.398438 39.367188 -239.097656 45.140625 -239.921875 C 48.023438 -240.335938 52.351562 -240.695312 58.125 -241 C 63.894531 -241.3125 70.023438 -241.519531 76.515625 -241.625 C 83.015625 -241.726562 88.53125 -241.78125 93.0625 -241.78125 C 113.0625 -241.78125 130.6875 -238.84375 145.9375 -232.96875 C 161.1875 -227.09375 173.191406 -218.640625 181.953125 -207.609375 C 190.710938 -196.585938 195.09375 -183.140625 195.09375 -167.265625 C 195.09375 -154.484375 192.15625 -143.300781 186.28125 -133.71875 C 180.40625 -124.132812 172.625 -116.25 162.9375 -110.0625 C 153.25 -103.882812 142.835938 -99.25 131.703125 -96.15625 C 120.578125 -93.0625 109.65625 -91.515625 98.9375 -91.515625 C 93.988281 -91.515625 89.660156 -91.671875 85.953125 -91.984375 C 82.242188 -92.296875 78.632812 -92.757812 75.125 -93.375 C 74.507812 -78.738281 73.941406 -64.769531 73.421875 -51.46875 C 72.910156 -38.175781 72.347656 -24.9375 71.734375 -11.75 C 71.523438 -5.5625 68.789062 -1.285156 63.53125 1.078125 C 58.28125 3.453125 51.738281 4.640625 43.90625 4.640625 C 34.625 4.640625 28.179688 3.09375 24.578125 0 C 20.972656 -3.09375 19.273438 -7.726562 19.484375 -13.90625 C 21.742188 -48.539062 23.234375 -83.582031 23.953125 -119.03125 C 24.679688 -154.488281 26.59375 -189.429688 29.6875 -223.859375 Z M 77.609375 -131.40625 C 81.109375 -130.582031 84.25 -130.015625 87.03125 -129.703125 C 89.8125 -129.390625 93.0625 -129.234375 96.78125 -129.234375 C 102.957031 -129.234375 108.722656 -130.210938 114.078125 -132.171875 C 119.441406 -134.128906 124.1875 -136.859375 128.3125 -140.359375 C 132.4375 -143.867188 135.679688 -147.941406 138.046875 -152.578125 C 140.421875 -157.222656 141.609375 -162.328125 141.609375 -167.890625 C 141.609375 -173.242188 140.628906 -177.984375 138.671875 -182.109375 C 136.710938 -186.234375 133.878906 -189.84375 130.171875 -192.9375 C 126.460938 -196.03125 121.976562 -198.398438 116.71875 -200.046875 C 111.457031 -201.691406 105.738281 -202.515625 99.5625 -202.515625 C 95.644531 -202.515625 92.191406 -202.359375 89.203125 -202.046875 C 86.210938 -201.742188 83.476562 -201.382812 81 -200.96875 C 80.59375 -193.957031 80.234375 -187.050781 79.921875 -180.25 C 79.617188 -173.445312 79.257812 -166.179688 78.84375 -158.453125 C 78.425781 -150.722656 78.015625 -141.707031 77.609375 -131.40625 Z M 77.609375 -131.40625 "/></g></g></g><g fill="#f5f5dc" fill-opacity="1"><g transform="translate(1156.257746, 713.6422)"><g><path d="M 28.140625 -218.59375 C 29.367188 -224.363281 31.835938 -228.945312 35.546875 -232.34375 C 39.265625 -235.75 46.070312 -237.453125 55.96875 -237.453125 C 65.238281 -237.453125 72.140625 -235.648438 76.671875 -232.046875 C 81.210938 -228.441406 82.96875 -223.441406 81.9375 -217.046875 C 81.519531 -214.367188 81.050781 -210.039062 80.53125 -204.0625 C 80.019531 -198.082031 79.457031 -191.019531 78.84375 -182.875 C 78.226562 -174.738281 77.710938 -166.34375 77.296875 -157.6875 C 76.878906 -149.03125 76.671875 -140.679688 76.671875 -132.640625 C 76.671875 -112.023438 77.859375 -95.117188 80.234375 -81.921875 C 82.609375 -68.734375 86.882812 -58.992188 93.0625 -52.703125 C 99.25 -46.421875 108.113281 -43.28125 119.65625 -43.28125 C 126.664062 -43.28125 133.003906 -44.878906 138.671875 -48.078125 C 144.335938 -51.273438 149.179688 -56.53125 153.203125 -63.84375 C 157.222656 -71.164062 160.265625 -80.957031 162.328125 -93.21875 C 164.390625 -105.476562 165.421875 -120.882812 165.421875 -139.4375 C 165.421875 -155.101562 164.800781 -169.6875 163.5625 -183.1875 C 162.320312 -196.695312 161.289062 -209.425781 160.46875 -221.375 C 160.257812 -227.144531 161.851562 -231.675781 165.25 -234.96875 C 168.65625 -238.269531 174.894531 -239.921875 183.96875 -239.921875 C 191.800781 -239.921875 197.726562 -238.890625 201.75 -236.828125 C 205.769531 -234.773438 208.601562 -232.046875 210.25 -228.640625 C 211.894531 -225.242188 212.820312 -221.585938 213.03125 -217.671875 C 213.644531 -211.691406 214.207031 -205.867188 214.71875 -200.203125 C 215.238281 -194.535156 215.703125 -188.453125 216.109375 -181.953125 C 216.523438 -175.460938 216.835938 -168.195312 217.046875 -160.15625 C 217.253906 -152.113281 217.359375 -142.734375 217.359375 -132.015625 C 217.359375 -113.671875 215.601562 -96.410156 212.09375 -80.234375 C 208.59375 -64.054688 203.03125 -49.726562 195.40625 -37.25 C 187.78125 -24.78125 177.679688 -15.039062 165.109375 -8.03125 C 152.535156 -1.03125 137.078125 2.46875 118.734375 2.46875 C 101.410156 2.46875 86.925781 0.0976562 75.28125 -4.640625 C 63.632812 -9.378906 54.253906 -15.972656 47.140625 -24.421875 C 40.035156 -32.878906 34.726562 -42.878906 31.21875 -54.421875 C 27.71875 -65.960938 25.347656 -78.640625 24.109375 -92.453125 C 23.285156 -100.484375 22.664062 -109.804688 22.25 -120.421875 C 21.84375 -131.046875 21.742188 -142.179688 21.953125 -153.828125 C 22.160156 -165.472656 22.78125 -176.910156 23.8125 -188.140625 C 24.84375 -199.367188 26.285156 -209.519531 28.140625 -218.59375 Z M 28.140625 -218.59375 "/></g></g></g><g fill="#f5f5dc" fill-opacity="1"><g transform="translate(1391.54903, 713.6422)"><g><path d="M 29.6875 -223.859375 C 30.09375 -228.597656 31.328125 -232.253906 33.390625 -234.828125 C 35.453125 -237.398438 39.367188 -239.097656 45.140625 -239.921875 C 48.023438 -240.335938 52.351562 -240.695312 58.125 -241 C 63.894531 -241.3125 70.023438 -241.519531 76.515625 -241.625 C 83.015625 -241.726562 88.53125 -241.78125 93.0625 -241.78125 C 113.0625 -241.78125 130.6875 -238.84375 145.9375 -232.96875 C 161.1875 -227.09375 173.191406 -218.640625 181.953125 -207.609375 C 190.710938 -196.585938 195.09375 -183.140625 195.09375 -167.265625 C 195.09375 -154.484375 192.15625 -143.300781 186.28125 -133.71875 C 180.40625 -124.132812 172.625 -116.25 162.9375 -110.0625 C 153.25 -103.882812 142.835938 -99.25 131.703125 -96.15625 C 120.578125 -93.0625 109.65625 -91.515625 98.9375 -91.515625 C 93.988281 -91.515625 89.660156 -91.671875 85.953125 -91.984375 C 82.242188 -92.296875 78.632812 -92.757812 75.125 -93.375 C 74.507812 -78.738281 73.941406 -64.769531 73.421875 -51.46875 C 72.910156 -38.175781 72.347656 -24.9375 71.734375 -11.75 C 71.523438 -5.5625 68.789062 -1.285156 63.53125 1.078125 C 58.28125 3.453125 51.738281 4.640625 43.90625 4.640625 C 34.625 4.640625 28.179688 3.09375 24.578125 0 C 20.972656 -3.09375 19.273438 -7.726562 19.484375 -13.90625 C 21.742188 -48.539062 23.234375 -83.582031 23.953125 -119.03125 C 24.679688 -154.488281 26.59375 -189.429688 29.6875 -223.859375 Z M 77.609375 -131.40625 C 81.109375 -130.582031 84.25 -130.015625 87.03125 -129.703125 C 89.8125 -129.390625 93.0625 -129.234375 96.78125 -129.234375 C 102.957031 -129.234375 108.722656 -130.210938 114.078125 -132.171875 C 119.441406 -134.128906 124.1875 -136.859375 128.3125 -140.359375 C 132.4375 -143.867188 135.679688 -147.941406 138.046875 -152.578125 C 140.421875 -157.222656 141.609375 -162.328125 141.609375 -167.890625 C 141.609375 -173.242188 140.628906 -177.984375 138.671875 -182.109375 C 136.710938 -186.234375 133.878906 -189.84375 130.171875 -192.9375 C 126.460938 -196.03125 121.976562 -198.398438 116.71875 -200.046875 C 111.457031 -201.691406 105.738281 -202.515625 99.5625 -202.515625 C 95.644531 -202.515625 92.191406 -202.359375 89.203125 -202.046875 C 86.210938 -201.742188 83.476562 -201.382812 81 -200.96875 C 80.59375 -193.957031 80.234375 -187.050781 79.921875 -180.25 C 79.617188 -173.445312 79.257812 -166.179688 78.84375 -158.453125 C 78.425781 -150.722656 78.015625 -141.707031 77.609375 -131.40625 Z M 77.609375 -131.40625 "/></g></g></g><g fill="#f5f5dc" fill-opacity="1"><g transform="translate(1591.902144, 713.6422)"><g/></g></g><g fill="#f5f5dc" fill-opacity="1"><g transform="translate(1710.011524, 713.6422)"><g><path d="M 209.3125 -215.8125 C 210.550781 -214.988281 212.253906 -213.335938 214.421875 -210.859375 C 216.585938 -208.390625 217.671875 -205.300781 217.671875 -201.59375 C 217.671875 -196.851562 216.429688 -192.421875 213.953125 -188.296875 C 211.484375 -184.171875 208.597656 -180.867188 205.296875 -178.390625 C 202.003906 -175.921875 199.222656 -174.6875 196.953125 -174.6875 C 194.273438 -174.6875 191.800781 -175.304688 189.53125 -176.546875 C 187.257812 -177.785156 185.300781 -178.921875 183.65625 -179.953125 C 176.851562 -184.273438 170.671875 -187.671875 165.109375 -190.140625 C 159.546875 -192.617188 154.082031 -194.476562 148.71875 -195.71875 C 143.363281 -196.957031 137.59375 -197.578125 131.40625 -197.578125 C 119.039062 -197.578125 107.960938 -194.535156 98.171875 -188.453125 C 88.378906 -182.367188 80.695312 -173.242188 75.125 -161.078125 C 69.5625 -148.921875 66.78125 -133.671875 66.78125 -115.328125 C 66.78125 -100.691406 68.894531 -87.703125 73.125 -76.359375 C 77.351562 -65.023438 83.796875 -56.0625 92.453125 -49.46875 C 101.109375 -42.875 112.03125 -39.578125 125.21875 -39.578125 C 133.050781 -39.578125 140.316406 -40.554688 147.015625 -42.515625 C 153.710938 -44.472656 160.101562 -47.359375 166.1875 -51.171875 C 172.269531 -54.984375 178.195312 -59.671875 183.96875 -65.234375 C 185.820312 -67.085938 187.625 -68.53125 189.375 -69.5625 C 191.125 -70.59375 193.03125 -71.109375 195.09375 -71.109375 C 198.1875 -71.109375 201.585938 -69.921875 205.296875 -67.546875 C 209.003906 -65.179688 212.351562 -62.09375 215.34375 -58.28125 C 218.332031 -54.46875 219.828125 -50.394531 219.828125 -46.0625 C 219.828125 -42.351562 218.742188 -38.796875 216.578125 -35.390625 C 214.421875 -31.992188 211.585938 -28.546875 208.078125 -25.046875 C 197.359375 -14.328125 184.269531 -6.335938 168.8125 -1.078125 C 153.351562 4.171875 137.894531 6.796875 122.4375 6.796875 C 100.789062 6.796875 81.878906 2.054688 65.703125 -7.421875 C 49.523438 -16.898438 36.898438 -30.601562 27.828125 -48.53125 C 18.753906 -66.46875 14.21875 -88.113281 14.21875 -113.46875 C 14.21875 -133.050781 17.15625 -150.675781 23.03125 -166.34375 C 28.90625 -182.007812 37.097656 -195.40625 47.609375 -206.53125 C 58.128906 -217.664062 70.550781 -226.222656 84.875 -232.203125 C 99.195312 -238.179688 114.910156 -241.171875 132.015625 -241.171875 C 140.472656 -241.171875 149.179688 -240.289062 158.140625 -238.53125 C 167.109375 -236.78125 176.023438 -234.101562 184.890625 -230.5 C 193.753906 -226.894531 201.894531 -222 209.3125 -215.8125 Z M 209.3125 -215.8125 "/></g></g></g><g fill="#f5f5dc" fill-opacity="1"><g transform="translate(1942.520105, 713.6422)"><g><path d="M 55.34375 -12.984375 C 53.488281 -6.796875 50.140625 -2.3125 45.296875 0.46875 C 40.453125 3.25 33.082031 4.640625 23.1875 4.640625 C 14.945312 4.640625 9.175781 2.992188 5.875 -0.296875 C 2.570312 -3.597656 0.921875 -7.109375 0.921875 -10.828125 C 0.921875 -14.742188 1.539062 -18.65625 2.78125 -22.5625 C 4.019531 -26.476562 5.359375 -30.394531 6.796875 -34.3125 C 13.804688 -52.25 20.863281 -69.566406 27.96875 -86.265625 C 35.082031 -102.960938 42.195312 -119.09375 49.3125 -134.65625 C 56.425781 -150.21875 63.484375 -165.316406 70.484375 -179.953125 C 77.492188 -194.585938 84.503906 -208.707031 91.515625 -222.3125 C 95.222656 -229.9375 99.707031 -235.445312 104.96875 -238.84375 C 110.226562 -242.25 116.359375 -243.953125 123.359375 -243.953125 C 132.222656 -243.953125 139.75 -242.195312 145.9375 -238.6875 C 152.125 -235.1875 156.242188 -230.550781 158.296875 -224.78125 C 159.128906 -223.132812 160.9375 -218.132812 163.71875 -209.78125 C 166.5 -201.4375 170.050781 -190.925781 174.375 -178.25 C 178.707031 -165.570312 183.398438 -151.914062 188.453125 -137.28125 C 193.503906 -122.644531 198.707031 -108.160156 204.0625 -93.828125 C 209.425781 -79.503906 214.53125 -66.363281 219.375 -54.40625 C 224.21875 -42.457031 228.390625 -33.082031 231.890625 -26.28125 C 233.128906 -24.21875 234.210938 -21.796875 235.140625 -19.015625 C 236.066406 -16.234375 236.53125 -14.019531 236.53125 -12.375 C 236.53125 -7.832031 234.109375 -3.65625 229.265625 0.15625 C 224.421875 3.96875 217.875 5.875 209.625 5.875 C 204.0625 5.875 199.0625 5.203125 194.625 3.859375 C 190.195312 2.523438 186.644531 -0.820312 183.96875 -6.1875 C 177.570312 -18.96875 171.59375 -33.394531 166.03125 -49.46875 C 160.46875 -65.550781 155.265625 -81.988281 150.421875 -98.78125 C 145.578125 -115.582031 140.832031 -131.609375 136.1875 -146.859375 C 131.550781 -162.117188 127.070312 -175.414062 122.75 -186.75 C 112.644531 -165.101562 103.570312 -144.023438 95.53125 -123.515625 C 87.5 -103.003906 80.234375 -83.472656 73.734375 -64.921875 C 67.242188 -46.378906 61.113281 -29.066406 55.34375 -12.984375 Z M 51.015625 -82.546875 C 51.015625 -87.492188 52.40625 -91.515625 55.1875 -94.609375 C 57.96875 -97.703125 61.109375 -100.019531 64.609375 -101.5625 C 68.117188 -103.113281 71.007812 -104.09375 73.28125 -104.5 C 77.8125 -105.53125 83.21875 -106.507812 89.5 -107.4375 C 95.789062 -108.363281 103.421875 -108.878906 112.390625 -108.984375 C 121.359375 -109.085938 132.023438 -108.421875 144.390625 -106.984375 C 146.242188 -106.773438 149.695312 -106.820312 154.75 -107.125 C 159.800781 -107.4375 165.363281 -107.847656 171.4375 -108.359375 C 177.519531 -108.878906 183.1875 -109.445312 188.4375 -110.0625 C 193.695312 -110.6875 197.460938 -111.101562 199.734375 -111.3125 C 205.503906 -111.925781 210.191406 -110.632812 213.796875 -107.4375 C 217.410156 -104.25 219.21875 -99.457031 219.21875 -93.0625 C 219.21875 -87.289062 217.15625 -82.445312 213.03125 -78.53125 C 208.90625 -74.613281 203.597656 -71.46875 197.109375 -69.09375 C 190.617188 -66.726562 184.019531 -65.082031 177.3125 -64.15625 C 170.613281 -63.226562 164.691406 -62.765625 159.546875 -62.765625 C 147.796875 -62.765625 136.921875 -62.816406 126.921875 -62.921875 C 116.921875 -63.023438 107.078125 -62.816406 97.390625 -62.296875 C 87.703125 -61.785156 77.085938 -60.804688 65.546875 -59.359375 C 62.453125 -59.160156 59.253906 -61.484375 55.953125 -66.328125 C 52.660156 -71.171875 51.015625 -76.578125 51.015625 -82.546875 Z M 51.015625 -82.546875 "/></g></g></g><g fill="#f5f5dc" fill-opacity="1"><g transform="translate(2185.850316, 713.6422)"><g><path d="M 28.75 -224.78125 C 29.164062 -230.132812 31.894531 -233.945312 36.9375 -236.21875 C 41.988281 -238.488281 47.914062 -239.625 54.71875 -239.625 C 65.03125 -239.625 72.09375 -237.972656 75.90625 -234.671875 C 79.71875 -231.367188 81.414062 -226.628906 81 -220.453125 C 79.769531 -205.398438 78.894531 -191.125 78.375 -177.625 C 77.863281 -164.125 77.347656 -150.519531 76.828125 -136.8125 C 76.316406 -123.101562 75.597656 -108.773438 74.671875 -93.828125 C 73.742188 -78.890625 72.453125 -62.660156 70.796875 -45.140625 C 80.691406 -45.347656 89.242188 -45.550781 96.453125 -45.75 C 103.671875 -45.957031 110.21875 -46.21875 116.09375 -46.53125 C 121.96875 -46.84375 127.738281 -47.097656 133.40625 -47.296875 C 139.082031 -47.503906 145.320312 -47.609375 152.125 -47.609375 C 157.894531 -47.609375 162.476562 -46.164062 165.875 -43.28125 C 169.28125 -40.394531 170.984375 -34.625 170.984375 -25.96875 C 170.984375 -15.664062 169.382812 -8.863281 166.1875 -5.5625 C 162.988281 -2.269531 158.398438 -0.625 152.421875 -0.625 C 138.203125 -0.625 125.421875 -0.519531 114.078125 -0.3125 C 102.742188 -0.101562 92.390625 0.148438 83.015625 0.453125 C 73.640625 0.765625 64.929688 1.023438 56.890625 1.234375 C 48.847656 1.441406 40.8125 1.546875 32.78125 1.546875 C 28.238281 1.546875 24.523438 -0.046875 21.640625 -3.234375 C 18.753906 -6.429688 17.3125 -10.300781 17.3125 -14.84375 C 17.3125 -19.582031 17.566406 -24.578125 18.078125 -29.828125 C 18.597656 -35.085938 19.21875 -40.242188 19.9375 -45.296875 C 20.664062 -50.347656 21.128906 -55.035156 21.328125 -59.359375 C 23.390625 -88.421875 24.675781 -117.125 25.1875 -145.46875 C 25.707031 -173.8125 26.894531 -200.25 28.75 -224.78125 Z M 28.75 -224.78125 "/></g></g></g><g fill="#f5f5dc" fill-opacity="1"><g transform="translate(2366.724717, 713.6422)"><g><path d="M 37.40625 4.640625 C 35.144531 4.640625 32.46875 4.378906 29.375 3.859375 C 26.28125 3.347656 23.597656 1.960938 21.328125 -0.296875 C 19.066406 -2.566406 18.140625 -6.28125 18.546875 -11.4375 C 20.203125 -33.488281 21.851562 -56.160156 23.5 -79.453125 C 25.144531 -102.753906 26.632812 -126.097656 27.96875 -149.484375 C 29.3125 -172.878906 30.5 -195.710938 31.53125 -217.984375 C 31.945312 -224.160156 33.390625 -228.742188 35.859375 -231.734375 C 38.335938 -234.722656 42.875 -236.425781 49.46875 -236.84375 C 59.15625 -237.664062 70.335938 -238.28125 83.015625 -238.6875 C 95.691406 -239.101562 108.9375 -239.460938 122.75 -239.765625 C 136.5625 -240.078125 150.164062 -240.234375 163.5625 -240.234375 C 169.945312 -240.234375 174.582031 -238.84375 177.46875 -236.0625 C 180.351562 -233.28125 181.796875 -228.695312 181.796875 -222.3125 C 181.796875 -212 180.40625 -205.085938 177.625 -201.578125 C 174.84375 -198.078125 170.566406 -196.328125 164.796875 -196.328125 C 155.316406 -196.328125 147.019531 -196.273438 139.90625 -196.171875 C 132.789062 -196.078125 126.191406 -195.875 120.109375 -195.5625 C 114.035156 -195.25 108.007812 -194.9375 102.03125 -194.625 C 96.050781 -194.320312 89.351562 -193.859375 81.9375 -193.234375 C 81.519531 -186.234375 81.15625 -180.101562 80.84375 -174.84375 C 80.539062 -169.59375 80.285156 -164.441406 80.078125 -159.390625 C 79.867188 -154.335938 79.457031 -148.304688 78.84375 -141.296875 C 87.914062 -142.535156 96.570312 -143.460938 104.8125 -144.078125 C 113.0625 -144.703125 120.945312 -145.113281 128.46875 -145.3125 C 135.988281 -145.519531 142.945312 -145.421875 149.34375 -145.015625 C 152.84375 -145.015625 156.140625 -143.570312 159.234375 -140.6875 C 162.328125 -137.800781 163.875 -132.75 163.875 -125.53125 C 163.875 -116.050781 162.222656 -109.609375 158.921875 -106.203125 C 155.617188 -102.804688 152.320312 -101.109375 149.03125 -101.109375 C 143.875 -101.515625 137.632812 -101.664062 130.3125 -101.5625 C 123 -101.457031 114.859375 -101.046875 105.890625 -100.328125 C 96.929688 -99.609375 87.09375 -98.523438 76.375 -97.078125 C 75.539062 -86.773438 74.816406 -77.140625 74.203125 -68.171875 C 73.585938 -59.203125 72.867188 -49.976562 72.046875 -40.5 C 79.253906 -40.914062 86.617188 -41.429688 94.140625 -42.046875 C 101.671875 -42.671875 109.195312 -43.238281 116.71875 -43.75 C 124.238281 -44.257812 131.65625 -44.722656 138.96875 -45.140625 C 146.289062 -45.554688 153.351562 -45.765625 160.15625 -45.765625 C 165.101562 -45.765625 168.914062 -44.269531 171.59375 -41.28125 C 174.28125 -38.289062 175.414062 -33.1875 175 -25.96875 C 174.789062 -16.90625 173.398438 -10.617188 170.828125 -7.109375 C 168.253906 -3.609375 164.90625 -1.859375 160.78125 -1.859375 C 156.65625 -1.859375 152.476562 -1.859375 148.25 -1.859375 C 144.03125 -1.859375 139.859375 -1.753906 135.734375 -1.546875 C 126.046875 -1.335938 115.429688 -0.921875 103.890625 -0.296875 C 92.347656 0.316406 80.800781 1.035156 69.25 1.859375 C 57.707031 2.679688 47.09375 3.609375 37.40625 4.640625 Z M 37.40625 4.640625 "/></g></g></g><g fill="#f5f5dc" fill-opacity="1"><g transform="translate(2559.348265, 713.6422)"><g><path d="M 69.875 -12.984375 C 69.050781 -7.628906 66.367188 -3.867188 61.828125 -1.703125 C 57.296875 0.460938 50.5 1.546875 41.4375 1.546875 C 34.832031 1.546875 29.210938 0.0507812 24.578125 -2.9375 C 19.941406 -5.925781 17.929688 -10.820312 18.546875 -17.625 C 21.640625 -41.945312 24.113281 -65.804688 25.96875 -89.203125 C 27.820312 -112.597656 29.109375 -135.679688 29.828125 -158.453125 C 30.554688 -181.234375 30.40625 -203.753906 29.375 -226.015625 C 29.164062 -232.398438 30.8125 -236.984375 34.3125 -239.765625 C 37.820312 -242.554688 43.90625 -243.953125 52.5625 -243.953125 C 59.363281 -243.953125 64.976562 -242.554688 69.40625 -239.765625 C 73.84375 -236.984375 78.019531 -232.296875 81.9375 -225.703125 C 83.789062 -222.609375 86.265625 -218.535156 89.359375 -213.484375 C 92.453125 -208.441406 96.054688 -202.617188 100.171875 -196.015625 C 104.296875 -189.421875 108.882812 -182.15625 113.9375 -174.21875 C 118.988281 -166.289062 124.453125 -157.738281 130.328125 -148.5625 C 136.203125 -139.394531 142.4375 -129.8125 149.03125 -119.8125 C 155.625 -109.8125 162.53125 -99.453125 169.75 -88.734375 C 169.539062 -103.160156 169.535156 -115.890625 169.734375 -126.921875 C 169.941406 -137.953125 170.40625 -148.3125 171.125 -158 C 171.851562 -167.6875 172.734375 -177.472656 173.765625 -187.359375 C 174.796875 -197.253906 175.929688 -208.285156 177.171875 -220.453125 C 177.992188 -227.460938 180.257812 -232.613281 183.96875 -235.90625 C 187.675781 -239.207031 194.785156 -240.859375 205.296875 -240.859375 C 214.984375 -240.859375 221.21875 -239.3125 224 -236.21875 C 226.789062 -233.125 227.875 -228.488281 227.25 -222.3125 C 225.601562 -206.226562 224.109375 -190.507812 222.765625 -175.15625 C 221.429688 -159.800781 220.300781 -144.082031 219.375 -128 C 218.445312 -111.925781 217.671875 -94.457031 217.046875 -75.59375 C 216.429688 -56.738281 216.019531 -35.664062 215.8125 -12.375 C 215.8125 -7.625 214.160156 -3.859375 210.859375 -1.078125 C 207.566406 1.703125 201.488281 3.09375 192.625 3.09375 C 184.789062 3.09375 178.65625 1.597656 174.21875 -1.390625 C 169.789062 -4.378906 165.3125 -9.066406 160.78125 -15.453125 C 155.007812 -23.910156 149.597656 -31.898438 144.546875 -39.421875 C 139.492188 -46.941406 134.546875 -54.304688 129.703125 -61.515625 C 124.859375 -68.734375 119.859375 -76.257812 114.703125 -84.09375 C 109.554688 -91.925781 103.992188 -100.273438 98.015625 -109.140625 C 92.035156 -118.003906 85.335938 -128.003906 77.921875 -139.140625 C 78.117188 -127.796875 78.0625 -116.765625 77.75 -106.046875 C 77.445312 -95.328125 76.984375 -84.816406 76.359375 -74.515625 C 75.742188 -64.210938 74.867188 -53.957031 73.734375 -43.75 C 72.609375 -33.539062 71.320312 -23.285156 69.875 -12.984375 Z M 69.875 -12.984375 "/></g></g></g><g fill="#f5f5dc" fill-opacity="1"><g transform="translate(2804.224338, 713.6422)"><g><path d="M 18.234375 -9.890625 C 19.265625 -29.679688 20.5 -50.242188 21.9375 -71.578125 C 23.382812 -92.910156 24.832031 -114.398438 26.28125 -136.046875 C 27.3125 -149.648438 28.132812 -163.148438 28.75 -176.546875 C 29.375 -189.941406 29.785156 -202.820312 29.984375 -215.1875 C 30.191406 -219.3125 31.328125 -222.765625 33.390625 -225.546875 C 35.453125 -228.328125 38.851562 -230.335938 43.59375 -231.578125 C 47.300781 -232.203125 51.832031 -232.875 57.1875 -233.59375 C 62.550781 -234.3125 68.273438 -234.875 74.359375 -235.28125 C 80.441406 -235.695312 86.210938 -236.0625 91.671875 -236.375 C 97.140625 -236.6875 101.828125 -236.84375 105.734375 -236.84375 C 126.765625 -236.84375 145.113281 -233.75 160.78125 -227.5625 C 176.445312 -221.375 189.484375 -212.972656 199.890625 -202.359375 C 210.296875 -191.742188 218.175781 -179.476562 223.53125 -165.5625 C 228.894531 -151.65625 231.578125 -137.070312 231.578125 -121.8125 C 231.578125 -105.945312 228.585938 -90.332031 222.609375 -74.96875 C 216.640625 -59.613281 207.984375 -45.703125 196.640625 -33.234375 C 185.304688 -20.765625 171.492188 -10.816406 155.203125 -3.390625 C 138.921875 4.023438 120.476562 7.734375 99.875 7.734375 C 92.65625 7.734375 85.847656 7.164062 79.453125 6.03125 C 73.066406 4.894531 67.09375 3.398438 61.53125 1.546875 C 58.226562 2.785156 54.925781 3.816406 51.625 4.640625 C 48.332031 5.460938 44.421875 5.875 39.890625 5.875 C 34.117188 5.875 29.066406 4.738281 24.734375 2.46875 C 20.398438 0.207031 18.234375 -3.910156 18.234375 -9.890625 Z M 69.875 -40.8125 C 71.726562 -40.195312 73.6875 -39.679688 75.75 -39.265625 C 77.8125 -38.847656 80.078125 -38.484375 82.546875 -38.171875 C 85.023438 -37.867188 87.601562 -37.613281 90.28125 -37.40625 C 92.957031 -37.207031 95.640625 -37.109375 98.328125 -37.109375 C 107.179688 -37.109375 116.242188 -38.804688 125.515625 -42.203125 C 134.796875 -45.609375 143.351562 -50.8125 151.1875 -57.8125 C 159.019531 -64.820312 165.359375 -73.6875 170.203125 -84.40625 C 175.046875 -95.125 177.46875 -107.800781 177.46875 -122.4375 C 177.46875 -135.625 175.351562 -146.703125 171.125 -155.671875 C 166.90625 -164.640625 161.445312 -171.851562 154.75 -177.3125 C 148.050781 -182.78125 140.835938 -186.75 133.109375 -189.21875 C 125.378906 -191.695312 118.007812 -192.9375 111 -192.9375 C 107.082031 -192.9375 103.21875 -192.78125 99.40625 -192.46875 C 95.59375 -192.15625 91.984375 -191.738281 88.578125 -191.21875 C 85.179688 -190.707031 81.832031 -190.144531 78.53125 -189.53125 C 78.125 -176.957031 77.710938 -165.773438 77.296875 -155.984375 C 76.878906 -146.191406 76.363281 -136.914062 75.75 -128.15625 C 75.132812 -119.394531 74.515625 -110.738281 73.890625 -102.1875 C 73.273438 -93.632812 72.65625 -84.410156 72.03125 -74.515625 C 71.414062 -64.617188 70.695312 -53.382812 69.875 -40.8125 Z M 69.875 -40.8125 "/></g></g></g><g fill="#f5f5dc" fill-opacity="1"><g transform="translate(3050.028025, 713.6422)"><g><path d="M 55.34375 -12.984375 C 53.488281 -6.796875 50.140625 -2.3125 45.296875 0.46875 C 40.453125 3.25 33.082031 4.640625 23.1875 4.640625 C 14.945312 4.640625 9.175781 2.992188 5.875 -0.296875 C 2.570312 -3.597656 0.921875 -7.109375 0.921875 -10.828125 C 0.921875 -14.742188 1.539062 -18.65625 2.78125 -22.5625 C 4.019531 -26.476562 5.359375 -30.394531 6.796875 -34.3125 C 13.804688 -52.25 20.863281 -69.566406 27.96875 -86.265625 C 35.082031 -102.960938 42.195312 -119.09375 49.3125 -134.65625 C 56.425781 -150.21875 63.484375 -165.316406 70.484375 -179.953125 C 77.492188 -194.585938 84.503906 -208.707031 91.515625 -222.3125 C 95.222656 -229.9375 99.707031 -235.445312 104.96875 -238.84375 C 110.226562 -242.25 116.359375 -243.953125 123.359375 -243.953125 C 132.222656 -243.953125 139.75 -242.195312 145.9375 -238.6875 C 152.125 -235.1875 156.242188 -230.550781 158.296875 -224.78125 C 159.128906 -223.132812 160.9375 -218.132812 163.71875 -209.78125 C 166.5 -201.4375 170.050781 -190.925781 174.375 -178.25 C 178.707031 -165.570312 183.398438 -151.914062 188.453125 -137.28125 C 193.503906 -122.644531 198.707031 -108.160156 204.0625 -93.828125 C 209.425781 -79.503906 214.53125 -66.363281 219.375 -54.40625 C 224.21875 -42.457031 228.390625 -33.082031 231.890625 -26.28125 C 233.128906 -24.21875 234.210938 -21.796875 235.140625 -19.015625 C 236.066406 -16.234375 236.53125 -14.019531 236.53125 -12.375 C 236.53125 -7.832031 234.109375 -3.65625 229.265625 0.15625 C 224.421875 3.96875 217.875 5.875 209.625 5.875 C 204.0625 5.875 199.0625 5.203125 194.625 3.859375 C 190.195312 2.523438 186.644531 -0.820312 183.96875 -6.1875 C 177.570312 -18.96875 171.59375 -33.394531 166.03125 -49.46875 C 160.46875 -65.550781 155.265625 -81.988281 150.421875 -98.78125 C 145.578125 -115.582031 140.832031 -131.609375 136.1875 -146.859375 C 131.550781 -162.117188 127.070312 -175.414062 122.75 -186.75 C 112.644531 -165.101562 103.570312 -144.023438 95.53125 -123.515625 C 87.5 -103.003906 80.234375 -83.472656 73.734375 -64.921875 C 67.242188 -46.378906 61.113281 -29.066406 55.34375 -12.984375 Z M 51.015625 -82.546875 C 51.015625 -87.492188 52.40625 -91.515625 55.1875 -94.609375 C 57.96875 -97.703125 61.109375 -100.019531 64.609375 -101.5625 C 68.117188 -103.113281 71.007812 -104.09375 73.28125 -104.5 C 77.8125 -105.53125 83.21875 -106.507812 89.5 -107.4375 C 95.789062 -108.363281 103.421875 -108.878906 112.390625 -108.984375 C 121.359375 -109.085938 132.023438 -108.421875 144.390625 -106.984375 C 146.242188 -106.773438 149.695312 -106.820312 154.75 -107.125 C 159.800781 -107.4375 165.363281 -107.847656 171.4375 -108.359375 C 177.519531 -108.878906 183.1875 -109.445312 188.4375 -110.0625 C 193.695312 -110.6875 197.460938 -111.101562 199.734375 -111.3125 C 205.503906 -111.925781 210.191406 -110.632812 213.796875 -107.4375 C 217.410156 -104.25 219.21875 -99.457031 219.21875 -93.0625 C 219.21875 -87.289062 217.15625 -82.445312 213.03125 -78.53125 C 208.90625 -74.613281 203.597656 -71.46875 197.109375 -69.09375 C 190.617188 -66.726562 184.019531 -65.082031 177.3125 -64.15625 C 170.613281 -63.226562 164.691406 -62.765625 159.546875 -62.765625 C 147.796875 -62.765625 136.921875 -62.816406 126.921875 -62.921875 C 116.921875 -63.023438 107.078125 -62.816406 97.390625 -62.296875 C 87.703125 -61.785156 77.085938 -60.804688 65.546875 -59.359375 C 62.453125 -59.160156 59.253906 -61.484375 55.953125 -66.328125 C 52.660156 -71.171875 51.015625 -76.578125 51.015625 -82.546875 Z M 51.015625 -82.546875 "/></g></g></g><g fill="#f5f5dc" fill-opacity="1"><g transform="translate(3293.358146, 713.6422)"><g><path d="M 30.609375 -224.15625 C 31.023438 -229.101562 32.773438 -232.96875 35.859375 -235.75 C 38.953125 -238.53125 44.3125 -239.921875 51.9375 -239.921875 C 54.414062 -239.921875 57.40625 -239.5625 60.90625 -238.84375 C 64.414062 -238.125 67.867188 -236.988281 71.265625 -235.4375 C 74.671875 -233.894531 77.453125 -231.882812 79.609375 -229.40625 C 81.773438 -226.9375 82.753906 -224.054688 82.546875 -220.765625 L 69.5625 -12.375 C 69.15625 -5.976562 66.066406 -1.492188 60.296875 1.078125 C 54.523438 3.660156 47.925781 4.953125 40.5 4.953125 C 34.320312 4.953125 28.8125 3.609375 23.96875 0.921875 C 19.125 -1.753906 16.90625 -6.492188 17.3125 -13.296875 Z M 62.453125 -196.640625 C 59.984375 -196.234375 57.921875 -197.007812 56.265625 -198.96875 C 54.617188 -200.925781 53.175781 -203.445312 51.9375 -206.53125 C 50.707031 -209.625 49.832031 -212.71875 49.3125 -215.8125 C 48.800781 -218.90625 48.546875 -221.273438 48.546875 -222.921875 C 48.546875 -226.429688 50.347656 -229.316406 53.953125 -231.578125 C 57.554688 -233.847656 63.894531 -235.910156 72.96875 -237.765625 C 77.707031 -238.585938 82.753906 -239.253906 88.109375 -239.765625 C 93.472656 -240.285156 99.96875 -240.546875 107.59375 -240.546875 C 127.382812 -240.546875 144.03125 -237.453125 157.53125 -231.265625 C 171.03125 -225.085938 181.285156 -217 188.296875 -207 C 195.304688 -197 198.8125 -186.4375 198.8125 -175.3125 C 198.8125 -166.445312 197.054688 -158.097656 193.546875 -150.265625 C 190.046875 -142.429688 185.148438 -135.265625 178.859375 -128.765625 C 172.578125 -122.273438 165.363281 -116.609375 157.21875 -111.765625 C 149.082031 -106.921875 140.269531 -103.265625 130.78125 -100.796875 C 140.46875 -94.203125 148.96875 -88.328125 156.28125 -83.171875 C 163.601562 -78.015625 170.253906 -73.171875 176.234375 -68.640625 C 182.210938 -64.109375 187.929688 -59.421875 193.390625 -54.578125 C 198.859375 -49.734375 204.582031 -44.21875 210.5625 -38.03125 C 213.851562 -34.726562 216.015625 -32.046875 217.046875 -29.984375 C 218.078125 -27.929688 218.59375 -25.359375 218.59375 -22.265625 C 218.59375 -17.722656 216.941406 -13.441406 213.640625 -9.421875 C 210.347656 -5.410156 206.429688 -2.066406 201.890625 0.609375 C 197.359375 3.296875 193.132812 4.640625 189.21875 4.640625 C 187.363281 4.640625 185.144531 4.226562 182.5625 3.40625 C 179.988281 2.582031 177.570312 1.238281 175.3125 -0.625 C 167.0625 -8.039062 158.296875 -15.972656 149.015625 -24.421875 C 139.742188 -32.878906 130.109375 -41.332031 120.109375 -49.78125 C 110.117188 -58.226562 99.96875 -66.421875 89.65625 -74.359375 C 79.351562 -82.296875 68.945312 -89.664062 58.4375 -96.46875 L 60.296875 -133.875 C 62.554688 -133.664062 66.414062 -133.148438 71.875 -132.328125 C 77.34375 -131.503906 83.785156 -131.09375 91.203125 -131.09375 C 100.066406 -131.09375 107.898438 -132.175781 114.703125 -134.34375 C 121.503906 -136.507812 127.273438 -139.394531 132.015625 -143 C 136.765625 -146.601562 140.320312 -150.722656 142.6875 -155.359375 C 145.0625 -160.003906 146.25 -164.800781 146.25 -169.75 C 146.25 -176.957031 143.976562 -182.722656 139.4375 -187.046875 C 134.90625 -191.378906 129.03125 -194.578125 121.8125 -196.640625 C 114.601562 -198.703125 106.671875 -199.734375 98.015625 -199.734375 C 93.273438 -199.734375 89.148438 -199.628906 85.640625 -199.421875 C 82.140625 -199.210938 78.632812 -198.898438 75.125 -198.484375 C 71.625 -198.078125 67.398438 -197.460938 62.453125 -196.640625 Z M 62.453125 -196.640625 "/></g></g></g><g clip-path="url(#40ff3a6fca)"><g clip-path="url(#0c60a70735)"><path fill="#ffc736" d="M 544.347656 446.675781 L 889.570312 446.675781 L 889.570312 726.351562 L 544.347656 726.351562 Z M 544.347656 446.675781 " fill-opacity="1" fill-rule="nonzero"/></g></g></svg>